Coordinates
version=1
nRows=40
nColumns=38
inDegrees=no

Units are S.I. units (second, meters, Newtons, ...)
If the header above contains a line with 'inDegrees', this indicates whether rotational values are in degrees (yes) or radians (no).

endheader
time	pelvis_tilt	pelvis_list	pelvis_rotation	pelvis_tx	pelvis_ty	pelvis_tz	hip_flexion_r	hip_adduction_r	hip_rotation_r	knee_angle_r	ankle_angle_r	subtalar_angle_r	mtp_angle_r	hip_flexion_l	hip_adduction_l	hip_rotation_l	knee_angle_l	ankle_angle_l	subtalar_angle_l	mtp_angle_l	lumbar_extension	lumbar_bending	lumbar_rotation	arm_flex_r	arm_add_r	arm_rot_r	elbow_flex_r	pro_sup_r	wrist_flex_r	wrist_dev_r	arm_flex_l	arm_add_l	arm_rot_l	elbow_flex_l	pro_sup_l	wrist_flex_l	wrist_dev_l
0.65	1.49375	1.38676	0.0993154	0.637384	0.458494	0.934882	0.306663	0.19255	-0.264506	0.330811	-0.0279866	0	0	0.157346	-0.26269	-0.0360994	1.24336	-0.181776	0	0	0.0346224	0.188024	-0.254194	-0.284359	-0.126897	-0.226408	0.319625	0.850144	0	0	-0.208787	-0.265926	0.355085	0.588096	0.678871	0	0
0.66	1.51477	1.38899	0.0740391	0.638447	0.46753	0.936599	0.287744	0.195353	-0.254413	0.32485	-0.025854	0	0	0.181232	-0.258462	-0.0287536	1.28122	-0.159018	0	0	0.0287068	0.186179	-0.251254	-0.281382	-0.126244	-0.225186	0.313768	0.849311	0	0	-0.210836	-0.266246	0.352147	0.589015	0.678265	0	0
0.67	1.53033	1.39263	0.0532382	0.639569	0.476349	0.938362	0.269383	0.196424	-0.243203	0.317353	-0.0246528	0	0	0.205169	-0.252494	-0.0238465	1.31378	-0.133955	0	0	0.0235234	0.182556	-0.247439	-0.278264	-0.125104	-0.224261	0.306845	0.848216	0	0	-0.213388	-0.266797	0.348401	0.590709	0.677982	0	0
0.68	1.54003	1.39714	0.0375768	0.640729	0.484953	0.940081	0.252207	0.196234	-0.231901	0.309505	-0.0230922	0	0	0.229662	-0.245287	-0.0203375	1.3412	-0.111592	0	0	0.0191034	0.177888	-0.24302	-0.275454	-0.123611	-0.224184	0.300422	0.847717	0	0	-0.216339	-0.267472	0.343367	0.593874	0.678313	0	0
0.69	1.54365	1.40217	0.0271971	0.64192	0.493352	0.941689	0.236259	0.19534	-0.220492	0.301652	-0.0210919	0	0	0.254773	-0.237403	-0.0179258	1.36355	-0.0942715	0	0	0.0154209	0.172742	-0.237459	-0.273748	-0.121821	-0.225737	0.296285	0.847881	0	0	-0.219117	-0.268317	0.338288	0.597647	0.679006	0	0
0.7	1.54495	1.40738	0.0186283	0.643089	0.501602	0.943202	0.220551	0.194032	-0.209855	0.29331	-0.0188039	0	0	0.279797	-0.229529	-0.0164406	1.38074	-0.0825738	0	0	0.0119121	0.167611	-0.230873	-0.273521	-0.12004	-0.228153	0.295464	0.848845	0	0	-0.221307	-0.269134	0.333613	0.601021	0.679362	0	0
0.71	1.54544	1.41237	0.0109477	0.644241	0.509764	0.944611	0.204758	0.192652	-0.200608	0.284352	-0.0167613	0	0	0.304495	-0.222291	-0.0153034	1.39305	-0.075058	0	0	0.00848817	0.162845	-0.223856	-0.274014	-0.118263	-0.231027	0.296217	0.850575	0	0	-0.222983	-0.270104	0.329704	0.604054	0.680684	0	0
0.72	1.54641	1.41747	0.00224606	0.645406	0.517793	0.945916	0.188741	0.191068	-0.190158	0.274618	-0.0152693	0	0	0.328257	-0.215513	-0.0151832	1.40052	-0.0704954	0	0	0.00454376	0.158102	-0.215919	-0.274922	-0.116262	-0.235199	0.298899	0.852792	0	0	-0.224273	-0.271172	0.325564	0.607473	0.683287	0	0
0.73	1.55363	1.4225	-0.0128977	0.646584	0.525789	0.947212	0.171192	0.189377	-0.178371	0.263681	-0.014267	0	0	0.349827	-0.209379	-0.0157989	1.40303	-0.0673291	0	0	-0.000753462	0.153541	-0.207342	-0.276303	-0.113868	-0.241799	0.304156	0.856766	0	0	-0.225286	-0.27246	0.321353	0.611311	0.687563	0	0
0.74	1.56911	1.42957	-0.0377884	0.6492	0.533578	0.948482	0.1533	0.18695	-0.166377	0.2543	-0.0134601	0	0	0.370436	-0.216968	-0.0103019	1.39808	-0.0546776	0	0	-0.00752912	0.144659	-0.197861	-0.27735	-0.109756	-0.248242	0.310587	0.861931	0	0	-0.226499	-0.275435	0.316668	0.614576	0.691672	0	0
0.75	1.5901	1.43484	-0.0677116	0.650342	0.541429	0.949718	0.13524	0.184057	-0.155197	0.245561	-0.0121787	0	0	0.387106	-0.21147	-0.0133463	1.39122	-0.049975	0	0	-0.014975	0.13977	-0.188488	-0.277367	-0.107633	-0.253542	0.316496	0.866333	0	0	-0.226699	-0.276353	0.312467	0.617477	0.694997	0	0
0.76	1.61846	1.44051	-0.104841	0.651476	0.549255	0.950921	0.116854	0.180238	-0.143403	0.237524	-0.0103605	0	0	0.401503	-0.205634	-0.0171314	1.37984	-0.0440798	0	0	-0.0231978	0.134064	-0.179267	-0.276898	-0.105133	-0.259077	0.322862	0.870757	0	0	-0.226474	-0.277202	0.306878	0.620499	0.69844	0	0
0.77	1.65183	1.44623	-0.14703	0.652564	0.557048	0.952095	0.0988485	0.175703	-0.131256	0.230447	-0.00797074	0	0	0.414108	-0.19993	-0.0217996	1.36432	-0.035668	0	0	-0.0315444	0.127969	-0.170349	-0.275468	-0.102733	-0.263719	0.328155	0.875859	0	0	-0.226198	-0.277947	0.301591	0.622953	0.701728	0	0
0.78	1.6872	1.4517	-0.191095	0.653604	0.564808	0.953193	0.081509	0.170925	-0.118637	0.223846	-0.00541014	0	0	0.425429	-0.194703	-0.0270989	1.34475	-0.0262442	0	0	-0.0396356	0.121767	-0.161648	-0.272823	-0.100521	-0.266739	0.331392	0.881364	0	0	-0.225476	-0.278634	0.296409	0.625367	0.705119	0	0
0.79	1.72257	1.45687	-0.23486	0.654603	0.572524	0.954183	0.0649347	0.165999	-0.10642	0.21785	-0.0023607	0	0	0.435721	-0.190022	-0.0328127	1.32128	-0.0168869	0	0	-0.0470981	0.115664	-0.153564	-0.269201	-0.0985202	-0.269274	0.33381	0.88579	0	0	-0.224529	-0.279064	0.291746	0.626516	0.708289	0	0
0.8	1.75229	1.45978	-0.273562	0.654245	0.580305	0.955075	0.0491649	0.160881	-0.0967649	0.211844	0.00179271	0	0	0.443351	-0.17289	-0.0430322	1.29591	-0.0179408	0	0	-0.0543298	0.113978	-0.145512	-0.264142	-0.0988249	-0.270408	0.335155	0.889162	0	0	-0.223223	-0.277352	0.287117	0.628125	0.710477	0	0
0.81	1.79115	1.46413	-0.320483	0.655116	0.587869	0.955887	0.033566	0.155706	-0.0859961	0.206626	0.00509709	0	0	0.450437	-0.169376	-0.0491268	1.26455	-0.0101557	0	0	-0.0617469	0.108208	-0.138583	-0.258462	-0.0973656	-0.269864	0.335109	0.891573	0	0	-0.221823	-0.277459	0.282618	0.62889	0.712444	0	0
0.82	1.83176	1.46779	-0.36847	0.655943	0.595407	0.956614	0.0173543	0.151026	-0.0752655	0.200006	0.00806723	0	0	0.455774	-0.166685	-0.0555192	1.22945	-0.00189691	0	0	-0.0692162	0.102815	-0.132166	-0.252453	-0.0959092	-0.268324	0.334402	0.89328	0	0	-0.220024	-0.277906	0.27946	0.629433	0.714388	0	0
0.83	1.89139	1.47255	-0.433687	0.658025	0.602853	0.957348	-0.000226725	0.146402	-0.0621956	0.193245	0.010379	0	0	0.458699	-0.178268	-0.0621928	1.18777	0.0151886	0	0	-0.0772115	0.0931242	-0.12683	-0.246834	-0.0922437	-0.26638	0.333429	0.894538	0	0	-0.21776	-0.280578	0.277301	0.628905	0.716569	0	0
0.84	1.91886	1.47555	-0.467109	0.658783	0.610454	0.957724	-0.0137702	0.142189	-0.0534401	0.187969	0.0145361	0	0	0.461864	-0.177685	-0.0718671	1.14547	0.0236208	0	0	-0.0821548	0.0885451	-0.12173	-0.241274	-0.0908533	-0.2645	0.332771	0.895085	0	0	-0.215804	-0.281411	0.276808	0.628382	0.718007	0	0
0.85	1.94546	1.47848	-0.499429	0.659524	0.618092	0.957974	-0.0270392	0.137924	-0.0449368	0.182792	0.019017	0	0	0.4632	-0.177808	-0.0836941	1.09965	0.0315427	0	0	-0.0866625	0.083816	-0.11697	-0.235979	-0.0894973	-0.261255	0.331586	0.895591	0	0	-0.213848	-0.28231	0.275428	0.628655	0.7188	0	0
0.86	1.96853	1.48131	-0.528313	0.660253	0.625745	0.958077	-0.0392959	0.133625	-0.0366809	0.178703	0.0239959	0	0	0.462878	-0.17861	-0.0978124	1.05062	0.0390597	0	0	-0.0907845	0.0792885	-0.11238	-0.230766	-0.0882481	-0.257557	0.3305	0.895626	0	0	-0.212088	-0.283253	0.274231	0.629118	0.719181	0	0
0.87	1.98905	1.48398	-0.55475	0.660934	0.633388	0.958075	-0.0507157	0.129325	-0.029082	0.17559	0.0291312	0	0	0.460695	-0.179941	-0.114421	0.998351	0.0458079	0	0	-0.0946982	0.0749938	-0.107687	-0.225908	-0.0869451	-0.254362	0.330021	0.894966	0	0	-0.210277	-0.284388	0.274141	0.629428	0.719416	0	0
0.88	2.00053	1.48657	-0.571351	0.661502	0.641155	0.957913	-0.0608096	0.125341	-0.0232034	0.173393	0.0345299	0	0	0.457644	-0.18149	-0.132881	0.943005	0.0508893	0	0	-0.0975325	0.0712008	-0.103699	-0.22189	-0.0854665	-0.252129	0.330251	0.893913	0	0	-0.20872	-0.285715	0.274959	0.629584	0.719763	0	0
0.89	2.03904	1.4886	-0.615662	0.662096	0.648999	0.9579	-0.0744126	0.120446	-0.015736	0.169032	0.0396122	0	0	0.449051	-0.182289	-0.156102	0.882871	0.0539974	0	0	-0.102843	0.066407	-0.0991049	-0.217806	-0.0836992	-0.250385	0.331043	0.891607	0	0	-0.207082	-0.287484	0.276458	0.630249	0.719816	0	0
0.9	2.04279	1.48993	-0.629072	0.661542	0.656883	0.957543	-0.0844128	0.114957	-0.0126558	0.165875	0.0465984	0	0	0.4422	-0.170026	-0.173242	0.823556	0.0472322	0	0	-0.106322	0.0659527	-0.0931423	-0.213003	-0.0843383	-0.250751	0.332743	0.892269	0	0	-0.206752	-0.286707	0.276551	0.631698	0.719167	0	0
0.91	2.06511	1.49232	-0.655849	0.66189	0.664936	0.957177	-0.0949701	0.109974	-0.00915774	0.164236	0.0530526	0	0	0.432895	-0.17003	-0.197989	0.759257	0.0483442	0	0	-0.109303	0.0617137	-0.0904199	-0.209846	-0.0826929	-0.251637	0.334051	0.89676	0	0	-0.205998	-0.287743	0.275985	0.63268	0.719389	0	0
0.92	2.08841	1.49512	-0.683157	0.662075	0.673113	0.956707	-0.104918	0.104336	-0.00605921	0.163225	0.0597134	0	0	0.422043	-0.168593	-0.225735	0.691895	0.0488588	0	0	-0.111608	0.0572583	-0.0883009	-0.207194	-0.0812594	-0.252201	0.335575	0.900768	0	0	-0.205446	-0.288579	0.275518	0.63275	0.720351	0	0
0.93	2.11236	1.49842	-0.709571	0.662041	0.681494	0.956113	-0.11433	0.0981712	-0.00468427	0.162617	0.0669918	0	0	0.410536	-0.16492	-0.254617	0.622846	0.0488888	0	0	-0.112856	0.0524466	-0.0881002	-0.204867	-0.0800194	-0.250813	0.336235	0.903141	0	0	-0.205697	-0.289282	0.273835	0.633414	0.72083	0	0
0.94	2.14054	1.50235	-0.739263	0.661775	0.690042	0.955421	-0.122496	0.0910709	-0.00543971	0.163969	0.0753819	0	0	0.398219	-0.15839	-0.283813	0.552261	0.0486876	0	0	-0.113343	0.0471875	-0.0887295	-0.203202	-0.0788514	-0.249637	0.337387	0.903204	0	0	-0.206024	-0.289915	0.273081	0.633089	0.722064	0	0
0.95	2.13801	1.5078	-0.736491	0.661196	0.698708	0.954379	-0.126865	0.0842511	-0.00901986	0.167149	0.0846453	0	0	0.389009	-0.149498	-0.309725	0.482229	0.0485661	0	0	-0.110211	0.0426227	-0.0912192	-0.202209	-0.0779595	-0.249603	0.338708	0.903199	0	0	-0.206581	-0.289875	0.272862	0.630623	0.722801	0	0
0.96	2.13367	1.5135	-0.730845	0.660371	0.707473	0.953219	-0.130378	0.0771223	-0.0138405	0.171747	0.0943667	0	0	0.379488	-0.137916	-0.331256	0.412109	0.0485025	0	0	-0.106572	0.0380256	-0.0948423	-0.201122	-0.0774189	-0.24911	0.339519	0.904808	0	0	-0.207342	-0.289458	0.271393	0.628535	0.723288	0	0
0.97	2.15082	1.52022	-0.746396	0.659332	0.716423	0.952022	-0.133693	0.0678806	-0.0199908	0.17751	0.105421	0	0	0.367727	-0.121866	-0.348035	0.339174	0.0463614	0	0	-0.102628	0.0318678	-0.0991548	-0.200057	-0.0772126	-0.247557	0.339411	0.908072	0	0	-0.208521	-0.288782	0.269389	0.625584	0.723905	0	0
0.98	2.19497	1.5281	-0.788421	0.658117	0.725591	0.950756	-0.136231	0.0566548	-0.0279011	0.185313	0.117983	0	0	0.35377	-0.101166	-0.354761	0.262915	0.0411877	0	0	-0.0978659	0.0240993	-0.104152	-0.199208	-0.0770794	-0.245526	0.338394	0.910652	0	0	-0.21021	-0.288143	0.267637	0.621533	0.725178	0	0
0.99	2.22099	1.53534	-0.811346	0.656822	0.734912	0.949325	-0.137961	0.0470388	-0.0365122	0.194174	0.13012	0	0	0.340563	-0.0809422	-0.350431	0.189674	0.0356404	0	0	-0.091976	0.0176814	-0.109783	-0.19884	-0.0771763	-0.244024	0.338006	0.911089	0	0	-0.212066	-0.287323	0.266185	0.61684	0.72635	0	0
1	2.27664	1.54168	-0.86366	0.655538	0.744485	0.947901	-0.14039	0.0375134	-0.0469666	0.204475	0.14256	0	0	0.323294	-0.0600897	-0.331913	0.114118	0.0254527	0	0	-0.0864603	0.0111552	-0.115324	-0.199467	-0.0773266	-0.242223	0.339014	0.911578	0	0	-0.214195	-0.286379	0.263809	0.611984	0.727355	0	0
1.01	2.3302	1.54621	-0.91426	0.654396	0.754241	0.946452	-0.144013	0.0301229	-0.0570394	0.214776	0.153789	0	0	0.303798	-0.0425089	-0.303748	0.0410622	0.0126924	0	0	-0.0814057	0.00603814	-0.119923	-0.201026	-0.0775804	-0.241563	0.341345	0.911084	0	0	-0.216701	-0.285472	0.261111	0.608042	0.727291	0	0
1.02	2.20387	1.55059	-0.784352	0.653366	0.763954	0.944694	-0.145008	0.0272118	-0.0651127	0.224478	0.162535	0	0	0.294262	-0.0325138	-0.280248	0	0.00792158	0	0	-0.0731328	0.00412965	-0.124169	-0.20333	-0.0779025	-0.243189	0.343163	0.91037	0	0	-0.219433	-0.284715	0.260509	0.603386	0.726499	0	0
1.03	2.21453	1.55267	-0.787955	0.652287	0.772963	0.943143	-0.148503	0.0269585	-0.07036	0.236842	0.16782	0	0	0.306725	-0.0284268	-0.263657	0	0.0148014	0	0	-0.070433	0.000353654	-0.129988	-0.205008	-0.0772956	-0.243879	0.343914	0.911349	0	0	-0.220437	-0.28534	0.26077	0.59829	0.725291	0	0
1.04	1.99918	1.55506	-0.566342	0.651141	0.782444	0.941576	-0.148632	0.0256232	-0.0798559	0.249658	0.174787	0	0	0.315265	-0.0256949	-0.250128	0	0.0246636	0	0	-0.0634288	-0.00102532	-0.135532	-0.207172	-0.0774673	-0.243868	0.34343	0.914468	0	0	-0.222553	-0.285261	0.26044	0.593531	0.723851	0	0
